<svg xmlns="http://www.w3.org/2000/svg" viewBox="0 0 992.64 180.2"><defs><style>.cls-1{fill:#fff;}.cls-2{fill:#0f7cf2;}</style></defs><title>bentask-white</title><g id="Layer_2" data-name="Layer 2"><g id="Layer_1-2" data-name="Layer 1"><path class="cls-1" d="M237.85,159.94V25.51h36.82q22.79,0,31.82,1.47A48.24,48.24,0,0,1,322.06,32,28.69,28.69,0,0,1,333.4,43.09a32.15,32.15,0,0,1,3.9,16q0,11.48-5.83,18.22t-18.6,10.24q14.33,1.11,22.41,10.06t8.08,23.91a38.28,38.28,0,0,1-4.55,18.92,31.42,31.42,0,0,1-13,12.67,53.31,53.31,0,0,1-17,5.24q-10.09,1.56-33.05,1.56Zm34-80.72h7.34q13.59,0,18.64-3t5.05-10.33q0-7.62-4.72-10.7t-18.42-3.07h-7.89Zm0,53.26h12.85q13,0,18.46-3.26t5.42-10.88q0-8.45-5-11.8t-18.37-3.35h-13.4Z"/><path class="cls-1" d="M459.24,120.09H388.72q.09,10.74,5.51,16.57t15.33,5.83a25.72,25.72,0,0,0,12.54-2.8,18.36,18.36,0,0,0,7.76-8.31l24.6,9.92q-4.4,10.65-15.61,16.43t-27.45,5.79q-24.24,0-38.89-13.45t-14.64-35.49q0-21.67,14.64-36t37.05-14.32q23.06,0,36.36,14.51t13.32,39.76ZM427,101.63A19.84,19.84,0,0,0,421,89a17.64,17.64,0,0,0-12.53-4.78q-8,0-12.72,4.36t-6.29,13.09Z"/><path class="cls-1" d="M478,159.94V67.2h29.94V86q6.51-11.3,15.05-16.53t20.48-5.23a41.72,41.72,0,0,1,16,2.89,28.34,28.34,0,0,1,11.44,8.31,28.83,28.83,0,0,1,5.23,11.39q1.56,6.7,1.56,20v53.08H544.91V110.26q0-11.12-3.63-16.16t-11.61-5q-10.2,0-14.88,7.53T510.11,121v38.94Z"/><path class="cls-1" d="M605.79,159.94V90.34H591.92V67.2h13.87V39.56H638V67.2h13.86V90.34H638v69.6Z"/><path class="cls-1" d="M766.57,67.2v92.74h-30V144.88q-6.42,9.65-14.46,14.14a38,38,0,0,1-18.87,4.5q-18.54,0-29.66-13.55t-11.11-36.31q0-22.68,11.62-36t31.26-13.36q10.47,0,18,4.45t13,13.73V67.2Zm-28.74,46.27q0-10.83-5.78-17.17T716.25,90q-10,0-15.75,6.29t-5.73,17.21q0,10.85,5.78,17.08t15.7,6.25q10,0,15.8-6.25T737.83,113.47Z"/><path class="cls-1" d="M782.64,152.22l6.8-25a53.25,53.25,0,0,0,15.74,9.59,47.17,47.17,0,0,0,17.31,3.36q6.15,0,9.37-2a6.34,6.34,0,0,0,3.21-5.74q0-6.15-13-9.18c-2.81-.67-5.08-1.25-6.79-1.75q-14.7-4-21.35-10.6t-6.66-17q0-13.5,10.15-21.58T825,64.26a83.36,83.36,0,0,1,18.14,2.06A99.58,99.58,0,0,1,862,72.71l-6.8,22.49A56,56,0,0,0,842,88.5a41.19,41.19,0,0,0-13.41-2.3c-3.73,0-6.55.59-8.45,1.75a5.58,5.58,0,0,0-2.84,5q0,4.95,12.85,8.35c2,.56,3.43,1,4.41,1.2q17,4.86,23.64,11.43t6.66,17.77a28.08,28.08,0,0,1-10.92,23Q843,163.51,825,163.52a87.85,87.85,0,0,1-22.68-2.8A72.71,72.71,0,0,1,782.64,152.22Z"/><path class="cls-1" d="M882.45,159.94V17.61h32.14v90.08l33.7-40.49h40.58l-41.68,44.62,45.45,48.12H949.57l-35-41.23v41.23Z"/><rect class="cls-2" width="180.2" height="180.2" rx="41.04"/><path class="cls-1" d="M48.49,149.36h82.79c6.33,0,9.51-3.16,9.52-9.31V43.44c0-6.78-2.91-9.78-9.69-9.88-7.63-.09-15.26-.1-22.88.08-2.29.06-3.38-.21-3.87-2.82-1.48-7.16-7.26-12-13.93-12a14.48,14.48,0,0,0-14.63,12c-.47,2.3-1.32,2.91-3.55,2.91-7.5-.19-15-.24-22.51-.23S39.42,36.26,39.4,43.81V91.39h0V139.7C39.38,146.2,42.33,149.35,48.49,149.36Zm4-106.55c7.07.14,7.07,0,7.2,7.15.11,5.6,1.22,6.72,6.9,6.78h47.19c5.16,0,6.52-1.4,6.65-6.78.2-7.24.2-7.13,7.52-7.14,2.68,0,3.52.84,3.51,3.55q-.13,45,0,90.08c0,2.82-1,3.48-3.56,3.47q-38.1-.09-76.24,0c-2.9,0-3-1.31-3-3.51V91.76c0-14.89.08-30-.06-45,0-3,.91-4,3.92-3.93Z"/><path class="cls-1" d="M63.4,93.49c3.32-.49,4.3.86,4.23,4.21-.21,8.59,0,17.19.07,25.78,0,1.21-.47,2.72,1.39,3.31A8.45,8.45,0,0,0,78,124L118.92,70.9c.63-.82,1.84-1.78.83-2.68s-1.66.54-2.3,1.18q-9.11,9.06-18.21,18.19c-6.45,6.49-12.85,13-19.27,19.54l-1-.48c0-5.45-.06-10.88,0-16.32,0-2-.7-2.8-2.74-2.77-4.72.09-9.44.06-14.16,0-1.64,0-2.33.58-2.47,2.31C59.41,92.8,60.61,93.91,63.4,93.49Z"/></g></g></svg>
